<svg version="1.1" id="Layer_1" xmlns="http://www.w3.org/2000/svg" xmlns:xlink="http://www.w3.org/1999/xlink" x="0px" y="0px"
	 width="100%" viewBox="0 0 211 211" enable-background="new 0 0 211 211" xml:space="preserve">
<path fill="#012345" opacity="1.000000" stroke="none" 
	d="
M1.000000,84.000000 
	C1.000000,56.000000 1.000000,28.500004 1.000000,1.000004 
	C71.333328,1.000002 141.666656,1.000002 212.000000,1.000001 
	C212.000000,71.333321 212.000000,141.666641 212.000000,211.999969 
	C141.666687,211.999985 71.333359,211.999985 1.000021,212.000000 
	C1.000000,169.500000 1.000000,127.000000 1.000000,84.000000 
M154.436050,113.245789 
	C154.263718,113.830383 154.091385,114.414978 153.323410,115.282974 
	C132.373520,136.215790 111.421036,157.146011 90.478264,178.085938 
	C88.652626,179.911331 86.725693,181.958344 89.148071,184.469193 
	C91.563835,186.973129 93.600510,185.239029 95.484970,183.336472 
	C100.168983,178.607422 104.895103,173.920105 109.601868,169.213577 
	C134.076736,144.739990 158.549088,120.263885 183.028503,95.794853 
	C184.978790,93.845390 187.183975,91.779449 184.416946,89.109596 
	C181.902786,86.683762 179.847412,88.699005 178.047302,90.520630 
	C172.325821,96.310486 166.639435,102.135002 160.461334,108.130173 
	C160.291031,108.417183 160.120712,108.704201 160.001266,109.003281 
	C160.001266,109.003281 159.983688,108.954056 159.304352,109.020203 
	C157.874298,110.349861 156.444244,111.679512 154.999390,112.999695 
	C154.999390,112.999695 155.009094,113.014565 154.436050,113.245789 
M100.374153,42.696880 
	C100.601471,50.125412 100.828796,57.553944 101.719078,65.251991 
	C104.706551,66.858353 105.222404,64.946938 105.258926,62.657391 
	C105.327873,58.335358 105.278053,54.011436 105.277824,49.688297 
	C105.277634,46.056557 105.277786,42.424816 105.277786,38.793079 
	C105.664520,38.760006 106.051247,38.726933 106.437981,38.693859 
	C110.658432,44.281593 114.878876,49.869328 119.635124,56.166447 
	C124.550499,49.636902 128.839951,43.938835 133.941833,37.161522 
	C133.941833,46.315868 133.849838,54.062080 134.028503,61.802048 
	C134.059845,63.160183 135.226410,64.492119 135.868698,65.836151 
	C136.696854,64.491776 138.210556,63.163551 138.242661,61.800430 
	C138.461853,52.494205 138.456284,43.179146 138.294434,33.870914 
	C138.266800,32.282063 137.141068,30.712307 136.522644,29.133728 
	C135.133057,30.097780 133.393372,30.793720 132.414322,32.072163 
	C128.103073,37.701694 124.011253,43.499268 119.645195,49.503780 
	C115.302254,43.451466 111.376816,37.697887 107.103073,32.215847 
	C105.975899,30.769991 103.773140,30.162649 101.594116,28.727526 
	C101.338593,31.481892 101.083076,34.236256 100.975632,37.818577 
	C100.926643,39.215965 100.877655,40.613358 100.374153,42.696880 
M167.727951,29.533331 
	C164.967163,28.087114 163.305511,29.455685 162.145050,31.812778 
	C157.315811,41.621647 152.459198,51.418438 147.804367,61.309887 
	C147.252991,62.481552 147.881058,64.208244 147.962387,65.677658 
	C149.162170,64.834900 151.126724,64.207870 151.435364,63.113743 
	C153.195938,56.872402 157.253098,54.968594 163.269363,55.980064 
	C164.403473,56.170734 165.620972,56.161777 166.759018,55.983444 
	C173.133148,54.984650 178.037491,56.313114 180.009293,63.392166 
	C180.278763,64.359596 182.332214,64.830116 183.559677,65.530708 
	C183.624893,64.090576 184.224167,62.392105 183.671997,61.250607 
	C178.628189,50.823315 173.384094,40.492897 167.727951,29.533331 
M81.916634,61.947830 
	C76.612877,62.671852 71.758392,61.667336 67.234726,58.648037 
	C66.340675,58.051311 64.639061,58.664543 63.309872,58.719784 
	C63.818283,59.792145 64.034554,61.311234 64.881882,61.865341 
	C70.993851,65.862274 77.623947,67.428802 84.768875,65.103531 
	C89.050308,63.710159 91.818169,60.993969 92.070946,56.138374 
	C92.336754,51.032436 89.243637,48.511688 85.095238,47.061470 
	C81.212814,45.704239 76.928009,45.331726 73.259750,43.596729 
	C71.359489,42.697952 69.126457,39.595085 69.387749,37.836178 
	C69.659355,36.007736 72.693718,33.369392 74.633629,33.268387 
	C78.430382,33.070705 82.293983,34.474438 86.155746,35.038460 
	C87.531654,35.239410 88.982430,34.927830 90.399025,34.850208 
	C89.571243,33.650547 88.924652,31.620398 87.884628,31.393492 
	C83.114258,30.352703 78.205032,29.100910 73.400818,29.294441 
	C68.314850,29.499325 64.571449,33.955051 64.181709,38.332886 
	C63.802910,42.587910 66.592133,46.172691 72.013145,47.909775 
	C75.146164,48.913700 78.618904,49.052914 81.556168,50.409603 
	C83.853760,51.470837 86.902222,53.642563 87.144279,55.623096 
	C87.371407,57.481434 84.354507,59.736259 81.916634,61.947830 
M30.581251,65.845978 
	C31.479742,64.401039 32.976906,63.025642 33.154480,61.496967 
	C33.547333,58.115013 33.276726,54.655998 33.276726,51.551155 
	C39.662830,51.007511 45.381634,50.642994 51.059345,49.944477 
	C52.350483,49.785629 53.499325,48.470184 54.713661,47.687096 
	C53.328423,47.127934 51.957207,46.131134 50.555485,46.086208 
	C44.825657,45.902546 39.086510,46.009609 33.661892,46.009609 
	C33.661892,41.130318 33.661892,37.222134 33.661892,32.861404 
	C41.631721,32.861404 49.215057,32.861404 56.798397,32.861404 
	C57.022152,32.298939 57.245907,31.736471 57.469662,31.174006 
	C56.105591,30.479366 54.758732,29.227154 53.374542,29.184433 
	C46.565369,28.974283 39.745609,29.140368 32.931015,29.057205 
	C29.951317,29.020844 28.835453,30.265787 28.877031,33.253422 
	C28.999617,42.062134 28.865423,50.874249 28.958727,59.683685 
	C28.978848,61.583321 29.531416,63.477322 30.581251,65.845978 
z"/>
<path fill="#B5C816" opacity="1.000000" stroke="none" 
	d="
M160.939499,107.946136 
	C166.639435,102.135002 172.325821,96.310486 178.047302,90.520630 
	C179.847412,88.699005 181.902786,86.683762 184.416946,89.109596 
	C187.183975,91.779449 184.978790,93.845390 183.028503,95.794853 
	C158.549088,120.263885 134.076736,144.739990 109.601868,169.213577 
	C104.895103,173.920105 100.168983,178.607422 95.484970,183.336472 
	C93.600510,185.239029 91.563835,186.973129 89.148071,184.469193 
	C86.725693,181.958344 88.652626,179.911331 90.478264,178.085938 
	C111.421036,157.146011 132.373520,136.215790 153.882202,114.984604 
	C154.630356,114.129013 154.819717,113.571785 155.009094,113.014565 
	C155.009094,113.014565 154.999390,112.999695 155.369446,113.013458 
	C157.154221,111.669502 158.568954,110.311775 159.983688,108.954056 
	C159.983688,108.954056 160.001266,109.003281 160.203842,108.889786 
	C160.584122,108.499580 160.761810,108.222862 160.939499,107.946136 
z"/>
<path fill="#F4F9FB" opacity="1.000000" stroke="none" 
	d="
M102.064285,29.170265 
	C103.773140,30.162649 105.975899,30.769991 107.103073,32.215847 
	C111.376816,37.697887 115.302254,43.451466 119.645195,49.503780 
	C124.011253,43.499268 128.103073,37.701694 132.414322,32.072163 
	C133.393372,30.793720 135.133057,30.097780 136.522644,29.133728 
	C137.141068,30.712307 138.266800,32.282063 138.294434,33.870914 
	C138.456284,43.179146 138.461853,52.494205 138.242661,61.800430 
	C138.210556,63.163551 136.696854,64.491776 135.868698,65.836151 
	C135.226410,64.492119 134.059845,63.160183 134.028503,61.802048 
	C133.849838,54.062080 133.941833,46.315868 133.941833,37.161522 
	C128.839951,43.938835 124.550499,49.636902 119.635124,56.166447 
	C114.878876,49.869328 110.658432,44.281593 106.437981,38.693859 
	C106.051247,38.726933 105.664520,38.760006 105.277786,38.793079 
	C105.277786,42.424816 105.277634,46.056557 105.277824,49.688297 
	C105.278053,54.011436 105.327873,58.335358 105.258926,62.657391 
	C105.222404,64.946938 104.706551,66.858353 101.359863,64.650459 
	C100.943314,56.702866 100.885986,49.356808 100.828659,42.010746 
	C100.877655,40.613358 100.926643,39.215965 100.974426,36.992409 
	C101.336914,33.834248 101.700600,31.502256 102.064285,29.170265 
z"/>
<path fill="#EFF6F9" opacity="1.000000" stroke="none" 
	d="
M167.963211,29.833759 
	C173.384094,40.492897 178.628189,50.823315 183.671997,61.250607 
	C184.224167,62.392105 183.624893,64.090576 183.559677,65.530708 
	C182.332214,64.830116 180.278763,64.359596 180.009293,63.392166 
	C178.037491,56.313114 173.133148,54.984650 166.759018,55.983444 
	C165.620972,56.161777 164.403473,56.170734 163.269363,55.980064 
	C157.253098,54.968594 153.195938,56.872402 151.435364,63.113743 
	C151.126724,64.207870 149.162170,64.834900 147.962387,65.677658 
	C147.881058,64.208244 147.252991,62.481552 147.804367,61.309887 
	C152.459198,51.418438 157.315811,41.621647 162.145050,31.812778 
	C163.305511,29.455685 164.967163,28.087114 167.963211,29.833759 
M160.074310,52.039612 
	C164.624512,52.039612 169.174713,52.039612 174.360657,52.039612 
	C171.277878,45.754494 168.532043,40.156353 165.542511,34.061344 
	C162.785065,39.744503 160.296356,44.748398 157.992645,49.836044 
	C157.785950,50.292519 158.776611,51.291164 160.074310,52.039612 
z"/>
<path fill="#EDF5F8" opacity="1.000000" stroke="none" 
	d="
M82.340858,61.882225 
	C84.354507,59.736259 87.371407,57.481434 87.144279,55.623096 
	C86.902222,53.642563 83.853760,51.470837 81.556168,50.409603 
	C78.618904,49.052914 75.146164,48.913700 72.013145,47.909775 
	C66.592133,46.172691 63.802910,42.587910 64.181709,38.332886 
	C64.571449,33.955051 68.314850,29.499325 73.400818,29.294441 
	C78.205032,29.100910 83.114258,30.352703 87.884628,31.393492 
	C88.924652,31.620398 89.571243,33.650547 90.399025,34.850208 
	C88.982430,34.927830 87.531654,35.239410 86.155746,35.038460 
	C82.293983,34.474438 78.430382,33.070705 74.633629,33.268387 
	C72.693718,33.369392 69.659355,36.007736 69.387749,37.836178 
	C69.126457,39.595085 71.359489,42.697952 73.259750,43.596729 
	C76.928009,45.331726 81.212814,45.704239 85.095238,47.061470 
	C89.243637,48.511688 92.336754,51.032436 92.070946,56.138374 
	C91.818169,60.993969 89.050308,63.710159 84.768875,65.103531 
	C77.623947,67.428802 70.993851,65.862274 64.881882,61.865341 
	C64.034554,61.311234 63.818283,59.792145 63.309872,58.719784 
	C64.639061,58.664543 66.340675,58.051311 67.234726,58.648037 
	C71.758392,61.667336 76.612877,62.671852 82.340858,61.882225 
z"/>
<path fill="#F5FAFC" opacity="1.000000" stroke="none" 
	d="
M30.209988,65.609947 
	C29.531416,63.477322 28.978848,61.583321 28.958727,59.683685 
	C28.865423,50.874249 28.999617,42.062134 28.877031,33.253422 
	C28.835453,30.265787 29.951317,29.020844 32.931015,29.057205 
	C39.745609,29.140368 46.565369,28.974283 53.374542,29.184433 
	C54.758732,29.227154 56.105591,30.479366 57.469662,31.174006 
	C57.245907,31.736471 57.022152,32.298939 56.798397,32.861404 
	C49.215057,32.861404 41.631721,32.861404 33.661892,32.861404 
	C33.661892,37.222134 33.661892,41.130318 33.661892,46.009609 
	C39.086510,46.009609 44.825657,45.902546 50.555485,46.086208 
	C51.957207,46.131134 53.328423,47.127934 54.713661,47.687096 
	C53.499325,48.470184 52.350483,49.785629 51.059345,49.944477 
	C45.381634,50.642994 39.662830,51.007511 33.276726,51.551155 
	C33.276726,54.655998 33.547333,58.115013 33.154480,61.496967 
	C32.976906,63.025642 31.479742,64.401039 30.209988,65.609947 
z"/>
<path fill="#07203A" opacity="1.000000" stroke="none" 
	d="
M100.601402,42.353813 
	C100.885986,49.356808 100.943314,56.702866 101.028381,64.515701 
	C100.828796,57.553944 100.601471,50.125412 100.601402,42.353813 
z"/>
<path fill="#07203A" opacity="1.000000" stroke="none" 
	d="
M101.829201,28.948895 
	C101.700600,31.502256 101.336914,33.834248 100.900391,36.578430 
	C101.083076,34.236256 101.338593,31.481892 101.829201,28.948895 
z"/>
<path fill="#A3BB36" opacity="1.000000" stroke="none" 
	d="
M159.644012,108.987122 
	C158.568954,110.311775 157.154221,111.669502 155.376862,113.018204 
	C156.444244,111.679512 157.874298,110.349861 159.644012,108.987122 
z"/>
<path fill="#A3BB36" opacity="1.000000" stroke="none" 
	d="
M154.722565,113.130173 
	C154.819717,113.571785 154.630356,114.129013 154.180023,114.842903 
	C154.091385,114.414978 154.263718,113.830383 154.722565,113.130173 
z"/>
<path fill="#A3BB36" opacity="1.000000" stroke="none" 
	d="
M160.700409,108.038155 
	C160.761810,108.222862 160.584122,108.499580 160.178406,108.883759 
	C160.120712,108.704201 160.291031,108.417183 160.700409,108.038155 
z"/>
<path fill="#0B2744" opacity="1.000000" stroke="none" 
	d="
M159.642761,52.038815 
	C158.776611,51.291164 157.785950,50.292519 157.992645,49.836044 
	C160.296356,44.748398 162.785065,39.744503 165.542511,34.061344 
	C168.532043,40.156353 171.277878,45.754494 174.360657,52.039612 
	C169.174713,52.039612 164.624512,52.039612 159.642761,52.038815 
z"/>
</svg>